<svg xmlns="http://www.w3.org/2000/svg">
  <symbol id="icon-fit" viewBox="0 0 24 24">
    <path d="M8 3H5a2 2 0 0 0-2 2v3"></path>
    <path d="M16 3h3a2 2 0 0 1 2 2v3"></path>
    <path d="M8 21H5a2 2 0 0 1-2-2v-3"></path>
    <path d="M16 21h3a2 2 0 0 0 2-2v-3"></path>
    <path d="M9 12h6"></path>
    <path d="M12 9v6"></path>
  </symbol>
  <symbol id="icon-preview" viewBox="0 0 20 20">
    <path d="M2.5 10s2.7-4.8 7.5-4.8S17.5 10 17.5 10 14.8 14.8 10 14.8 2.5 10 2.5 10Z"></path>
    <circle cx="10" cy="10" r="2.2"></circle>
  </symbol>
  <symbol id="icon-revert" viewBox="0 0 24 24">
    <path d="M3 7v5h5"></path>
    <path d="M5.1 12a7 7 0 1 0 2-4.9L3 11"></path>
  </symbol>
  <symbol id="icon-save" viewBox="0 0 24 24">
    <path d="M5 4h11l3 3v13H5z"></path>
    <path d="M8 4v6h8"></path>
    <path d="M8 20v-6h8v6"></path>
  </symbol>
  <symbol id="icon-dictation" viewBox="0 0 24 24">
    <path d="M12 14a3 3 0 0 0 3-3V6a3 3 0 1 0-6 0v5a3 3 0 0 0 3 3Zm5-4a1 1 0 1 1 2 0 7 7 0 0 1-6 6.92V20h3a1 1 0 1 1 0 2H8a1 1 0 1 1 0-2h3v-3.08A7 7 0 0 1 5 10a1 1 0 1 1 2 0 5 5 0 0 0 10 0Z"></path>
  </symbol>
  <symbol id="icon-artifact-image" viewBox="0 0 24 24">
    <rect x="3" y="5" width="18" height="14" rx="2"></rect>
    <circle cx="8" cy="10" r="1.6"></circle>
    <path d="m5 17 4.5-4.5 3.2 3.2 2.2-2.2L19 17"></path>
  </symbol>
  <symbol id="icon-artifact-markdown" viewBox="0 0 24 24">
    <rect x="3" y="5" width="18" height="14" rx="2"></rect>
    <path d="M7 15V9l2.5 3L12 9v6"></path>
    <path d="M15 9v6"></path>
    <path d="m13.5 13.5 1.5 1.5 1.5-1.5"></path>
  </symbol>
  <symbol id="icon-artifact-text" viewBox="0 0 24 24">
    <path d="M4 6h16"></path>
    <path d="M4 10h16"></path>
    <path d="M4 14h11"></path>
    <path d="M4 18h8"></path>
  </symbol>
  <symbol id="icon-artifact-log" viewBox="0 0 24 24">
    <path d="M7 4h7l3 3v13H7z"></path>
    <path d="M14 4v4h4"></path>
    <path d="M9 12h6"></path>
    <path d="M9 16h6"></path>
  </symbol>
  <symbol id="icon-artifact-unknown" viewBox="0 0 24 24">
    <path d="M12 17h.01"></path>
    <path d="M9.6 9a2.4 2.4 0 1 1 3.7 2 3.2 3.2 0 0 0-1.3 2.4"></path>
    <circle cx="12" cy="12" r="9"></circle>
  </symbol>
</svg>
